# Blender v2.79 (sub 0) OBJ File: ''
# www.blender.org
mtllib cobra3.mtl
o Shape_IndexedLineSet
v -0.000007 -0.000003 -76.000000
v -0.000008 -0.000004 -90.000000
l 1 2
o Shape_IndexedFaceSet
v -32.000008 -0.000003 -76.000000
v 31.999994 -0.000003 -76.000000
v -0.000002 25.999998 -24.000002
v 120.000000 -3.000000 7.999990
v -120.000000 -3.000000 8.000010
v 88.000000 16.000002 39.999992
v -88.000000 16.000002 40.000008
v -128.000000 -7.999998 40.000011
v 128.000000 -7.999998 39.999989
v 0.000003 26.000002 40.000000
v 32.000004 -23.999998 40.000000
v -31.999996 -23.999998 40.000004
v 36.000004 8.000002 39.999996
v 8.000004 12.000002 40.000000
v -7.999997 12.000002 40.000000
v -35.999996 8.000002 40.000004
v -35.999996 -11.999998 40.000004
v -7.999997 -15.999998 40.000000
v 8.000004 -15.999998 40.000000
v 36.000004 -11.999998 39.999996
v -0.000007 -0.000003 -76.000000
v -0.000008 -0.000004 -90.000000
v 80.000000 -5.999998 39.999992
v 80.000000 6.000002 39.999992
v 88.000000 0.000002 39.999992
v -80.000000 6.000002 40.000008
v -88.000000 0.000002 40.000008
v -80.000000 -5.999998 40.000008
vn 0.0000 -0.8944 0.4472
vn -0.0000 -0.9793 -0.2026
vn 0.3014 -0.9140 0.2716
vn -0.2834 0.9219 -0.2640
vn 0.1588 0.9672 0.1981
vn 0.3014 0.9140 -0.2716
vn -0.2834 -0.9219 0.2640
vn 0.1588 -0.9672 -0.1981
vn -0.1129 -0.9936 0.0000
vn -0.1129 0.9936 0.0000
vn 0.5145 0.8575 0.0054
vn 0.5145 -0.8575 -0.0054
vn -0.0000 -0.0000 -1.0000
usemtl Shape
s off
f 3//1 4//1 5//1
f 3//2 4//2 13//2 14//2
f 3//3 5//3 9//3
f 3//4 7//4 9//4
f 3//5 7//5 10//5 14//5
f 4//6 5//6 8//6
f 4//7 6//7 8//7
f 4//8 6//8 11//8 13//8
f 5//9 8//9 12//9
f 5//10 9//10 12//10
f 6//11 8//11 11//11
f 7//12 9//12 10//12
f 8//13 11//13 13//13 14//13 10//13 9//13 12//13
