# Blender v2.79 (sub 0) OBJ File: ''
# www.blender.org
mtllib dodo.mtl
o Shape_IndexedFaceSet_Shape_IndexedFaceSet.002
v -0.000017 149.999985 -196.000000
v -143.000015 45.999992 -195.999985
v -88.000015 -121.000008 -195.999985
v 87.999985 -121.000008 -196.000000
v 142.999985 45.999992 -196.000015
v -0.000004 243.000000 -46.000011
v -231.000000 75.000000 -45.999985
v -143.000000 -196.000000 -45.999977
v 143.000000 -196.000000 -46.000004
v 231.000000 75.000000 -46.000023
v -143.000000 196.000000 46.000004
v -231.000000 -75.000000 46.000023
v 0.000004 -243.000000 46.000011
v 231.000000 -75.000000 45.999985
v 143.000000 196.000000 45.999977
v -87.999985 121.000008 196.000000
v -142.999985 -45.999992 196.000015
v 0.000017 -149.999985 196.000000
v 143.000015 -45.999992 195.999985
v 88.000015 121.000008 195.999985
v 15.999983 31.999992 -196.000000
v 15.999983 -32.000008 -196.000000
v -16.000017 31.999992 -196.000000
v -16.000017 -32.000008 -196.000000
vn -0.5258 0.7230 -0.4482
vn 0.0000 0.0000 1.0000
vn 0.5258 0.7230 -0.4482
vn -0.8499 -0.2771 -0.4483
vn -0.0000 -0.8934 -0.4494
vn 0.8499 -0.2771 -0.4483
vn 0.0000 0.8934 0.4494
vn -0.8499 0.2771 0.4483
vn -0.5258 -0.7230 0.4482
vn 0.5258 -0.7230 0.4482
vn 0.8499 0.2771 0.4483
usemtl Shape.003
s off
f 1//1 2//1 7//1 11//1 6//1
f 1//2 2//2 3//2 4//2 5//2
f 1//3 6//3 15//3 10//3 5//3
f 2//4 3//4 8//4 12//4 7//4
f 3//5 4//5 9//5 13//5 8//5
f 4//6 5//6 10//6 14//6 9//6
f 6//7 11//7 16//7 20//7 15//7
f 7//8 12//8 17//8 16//8 11//8
f 8//9 13//9 18//9 17//9 12//9
f 9//10 14//10 19//10 18//10 13//10
f 10//11 15//11 20//11 19//11 14//11
f 16//2 17//2 18//2 19//2 20//2
